# Blender v2.79 (sub 0) OBJ File: ''
# www.blender.org
mtllib untitled.mtl
o Cylinder
v 0.038417 -0.083813 -0.559045
v 0.038417 0.582435 -0.559045
v 0.234222 -0.083813 -0.495425
v 0.234222 0.582435 -0.495425
v 0.355237 -0.083813 -0.328862
v 0.355237 0.582435 -0.328862
v 0.355237 -0.083813 -0.122980
v 0.355237 0.582435 -0.122980
v 0.234222 -0.083813 0.043582
v 0.234222 0.582435 0.043582
v 0.038417 -0.083813 0.107203
v 0.038417 0.582435 0.107203
v -0.157389 -0.083813 0.043582
v -0.157389 0.582435 0.043582
v -0.278404 -0.083813 -0.122980
v -0.278404 0.582435 -0.122980
v -0.278404 -0.083813 -0.328862
v -0.278404 0.582435 -0.328862
v -0.157389 -0.083813 -0.495425
v -0.157389 0.582435 -0.495425
v 0.038417 1.842222 -0.559045
v 0.234222 1.842222 -0.495425
v 0.355237 1.842222 -0.328862
v 0.355237 1.842222 -0.122980
v 0.234222 1.842222 0.043582
v 0.038417 1.842222 0.107203
v -0.157389 1.842222 0.043582
v -0.278403 1.842222 -0.122980
v -0.278403 1.842222 -0.328862
v -0.157389 1.842222 -0.495425
v 0.038417 2.818477 -0.559045
v 0.234222 2.818477 -0.495425
v 0.355237 2.818477 -0.328862
v 0.355237 2.818477 -0.122980
v 0.234222 2.818477 0.043582
v 0.038417 2.818477 0.107203
v -0.157389 2.818477 0.043582
v -0.278403 2.818477 -0.122980
v -0.278403 2.818477 -0.328862
v -0.157389 2.818477 -0.495425
v 0.038417 1.842222 -1.474083
v 0.772068 1.842222 -1.235706
v 1.225489 1.842222 -0.611624
v 1.225489 1.842222 0.159782
v 0.772068 1.842222 0.783863
v 0.038416 1.842222 1.022241
v -0.695235 1.842222 0.783863
v -1.148656 1.842222 0.159782
v -1.148656 1.842222 -0.611624
v -0.695234 1.842222 -1.235706
v -0.157389 2.818477 -0.495425
v 0.038417 1.842222 -1.474083
v 0.772068 1.842222 -1.235706
v 1.225489 1.842222 -0.611624
v 1.225489 1.842222 0.159782
v 0.772068 1.842222 0.783863
v 0.038416 1.842222 1.022241
v -0.695235 1.842222 0.783863
v -1.148656 1.842222 0.159782
v -1.148656 1.842222 -0.611624
v -0.695234 1.842222 -1.235706
v 0.038417 2.818477 -1.161988
v 0.588623 2.818477 -0.983215
v 0.928669 2.818477 -0.515182
v 0.928669 2.818477 0.063340
v 0.588623 2.818477 0.531373
v 0.038417 2.818477 0.710146
v -0.511790 2.818477 0.531373
v -0.851835 2.818477 0.063340
v -0.851835 2.818477 -0.515182
v -0.511789 2.818477 -0.983215
v 0.021320 3.733366 -0.212035
v 0.032055 3.733366 -0.208547
v 0.038690 3.733366 -0.199415
v 0.038690 3.733366 -0.188128
v 0.032055 3.733366 -0.178995
v 0.021320 3.733366 -0.175507
v 0.010584 3.733366 -0.178996
v 0.003949 3.733366 -0.188128
v 0.003949 3.733366 -0.199415
v 0.010584 3.733366 -0.208547
vt 0.816858 0.318413
vt 0.816858 0.431234
vt 0.850016 0.431234
vt 0.850016 0.318413
vt 0.326613 0.682037
vt 0.213793 0.682037
vt 0.213793 0.653832
vt 0.326613 0.653832
vt 0.213793 0.618968
vt 0.326613 0.618968
vt 0.213793 0.590763
vt 0.326613 0.590763
vt 0.782773 0.318413
vt 0.782773 0.431234
vt 0.749616 0.431234
vt 0.749616 0.318413
vt 0.716459 0.431234
vt 0.716459 0.318413
vt 0.653690 0.590763
vt 0.540870 0.590763
vt 0.540870 0.618968
vt 0.653690 0.618968
vt 0.540870 0.653832
vt 0.653690 0.653832
vt 0.327541 0.618968
vt 0.327541 0.653832
vt 0.540870 0.682037
vt 0.653690 0.682037
vt 0.783701 0.318413
vt 0.783701 0.431234
vt 0.904593 0.431234
vt 0.937750 0.420461
vt 0.958242 0.392255
vt 0.958242 0.357392
vt 0.937750 0.329187
vt 0.904593 0.318413
vt 0.871435 0.329187
vt 0.850943 0.357392
vt 0.850943 0.392255
vt 0.871435 0.420461
vt 0.922292 0.165780
vt 0.894087 0.165780
vt 0.894087 0.000464
vt 0.922292 0.000464
vt 0.327541 0.590763
vt 0.749616 0.644563
vt 0.716459 0.644563
vt 0.782773 0.644563
vt 0.000464 0.618968
vt 0.000464 0.590763
vt 0.816858 0.644563
vt 0.850016 0.644563
vt 0.000464 0.653832
vt 0.000464 0.682037
vt 0.783701 0.644563
vt 0.327541 0.682037
vt 0.937750 0.534209
vt 0.904593 0.544982
vt 0.871435 0.534209
vt 0.850943 0.506004
vt 0.850943 0.471140
vt 0.871436 0.442935
vt 0.904593 0.432162
vt 0.937750 0.442935
vt 0.958242 0.471140
vt 0.958242 0.506004
vt 0.923220 0.165780
vt 0.956377 0.165780
vt 0.956377 0.000464
vt 0.923220 0.000464
vt 0.869826 0.810807
vt 0.904690 0.810807
vt 0.904690 0.645490
vt 0.869827 0.645490
vt 0.905469 0.977051
vt 0.872312 0.977051
vt 0.872312 0.811734
vt 0.905469 0.811734
vt 0.859223 0.165780
vt 0.831018 0.165780
vt 0.831018 0.000464
vt 0.859223 0.000464
vt 0.841621 0.810807
vt 0.841621 0.645490
vt 0.938626 0.977051
vt 0.938626 0.811734
vt 0.989534 0.165780
vt 0.989534 0.000464
vt 0.932895 0.810807
vt 0.932895 0.645490
vt 0.255129 0.194392
vt 0.234637 0.166187
vt 0.325714 0.040830
vt 0.402495 0.146510
vt 0.201479 0.268234
vt 0.234637 0.257461
vt 0.325714 0.382818
vt 0.201479 0.423184
vt 0.147830 0.194392
vt 0.147830 0.229256
vt 0.000464 0.277138
vt 0.000464 0.146510
vt 0.201479 0.155414
vt 0.201479 0.000464
vt 0.255129 0.229256
vt 0.402495 0.277138
vt 0.168322 0.257461
vt 0.077245 0.382818
vt 0.168322 0.166187
vt 0.077245 0.040830
vt 0.999536 0.567810
vt 0.959170 0.692044
vt 0.959170 0.692044
vt 0.999536 0.567810
vt 0.959170 0.442648
vt 0.999536 0.566882
vt 0.999536 0.566882
vt 0.959170 0.442648
vt 0.201479 0.424112
vt 0.077245 0.464478
vt 0.077245 0.464478
vt 0.201479 0.424112
vt 0.999536 0.816279
vt 0.999536 0.816279
vt 0.368651 0.424112
vt 0.368651 0.554740
vt 0.368651 0.554740
vt 0.368651 0.424112
vt 0.000464 0.570158
vt 0.000464 0.570158
vt 0.853222 0.297336
vt 0.853222 0.166708
vt 0.853222 0.166708
vt 0.853222 0.297336
vt 0.370507 0.424112
vt 0.370507 0.554740
vt 0.370507 0.554740
vt 0.370507 0.424112
vt 0.999536 0.318413
vt 0.999536 0.318413
vt 0.369579 0.424112
vt 0.369579 0.554740
vt 0.369579 0.554740
vt 0.369579 0.424112
vt 0.705856 0.214590
vt 0.705856 0.249453
vt 0.165780 0.813593
vt 0.000464 0.765710
vt 0.000464 0.730847
vt 0.165780 0.682965
vt 0.168322 0.589835
vt 0.201479 0.579062
vt 0.291870 0.682965
vt 0.416104 0.682965
vt 0.416104 0.848281
vt 0.382947 0.848281
vt 0.716459 0.810807
vt 0.807536 0.645490
vt 0.840694 0.645490
vt 0.840694 0.810807
vt 0.564398 0.682965
vt 0.417032 0.730847
vt 0.417032 0.765710
vt 0.564398 0.813593
vt 0.367723 0.424112
vt 0.202407 0.471994
vt 0.202407 0.506858
vt 0.367723 0.554740
vt 0.712692 0.682965
vt 0.565326 0.730847
vt 0.565326 0.765710
vt 0.712692 0.813593
vt 0.290942 0.848281
vt 0.290942 0.682965
vt 0.257785 0.682965
vt 0.166708 0.848281
vt 0.705856 0.000464
vt 0.796933 0.165780
vt 0.830091 0.165780
vt 0.830091 0.000464
vt 0.554175 0.215385
vt 0.587333 0.204612
vt 0.647346 0.287213
vt 0.554175 0.317486
vt 0.500526 0.141543
vt 0.500526 0.176407
vt 0.403423 0.207957
vt 0.403423 0.109992
vt 0.587333 0.113338
vt 0.554175 0.102564
vt 0.554175 0.000464
vt 0.647346 0.030737
vt 0.607825 0.176407
vt 0.704928 0.207957
vt 0.521018 0.204612
vt 0.461005 0.287213
vt 0.521018 0.113338
vt 0.461005 0.030737
vt 0.607825 0.141543
vt 0.704928 0.109992
vt 0.558347 0.589037
vt 0.558347 0.555879
vt 0.403423 0.552984
vt 0.403423 0.554802
vt 0.871384 0.878149
vt 0.871384 0.843285
vt 0.716459 0.854317
vt 0.716459 0.856229
vt 0.715531 0.411584
vt 0.715531 0.444741
vt 0.560607 0.410506
vt 0.560607 0.408689
vt 0.155389 0.880935
vt 0.155389 0.909140
vt 0.000464 0.860561
vt 0.000464 0.859015
vt 0.558347 0.522722
vt 0.403423 0.551166
vt 0.715531 0.378427
vt 0.560607 0.406871
vt 0.155389 0.846071
vt 0.000464 0.857103
vt 0.871384 0.815080
vt 0.716459 0.852771
vt 0.871384 0.906354
vt 0.716459 0.857775
vt 0.155389 0.817866
vt 0.000464 0.855557
vt 0.565701 0.912485
vt 0.565701 0.814520
vt 0.417032 0.868653
vt 0.417032 0.870565
vt 0.871384 0.811734
vt 0.871384 0.909700
vt 0.548339 0.152575
vt 0.549462 0.151029
vt 0.715531 0.411584
vt 0.715531 0.318413
vt 0.715531 0.504754
vt 0.713583 0.912485
vt 0.713583 0.814520
vt 0.566629 0.856441
vt 0.566629 0.858352
vt 0.155389 0.912485
vt 0.155389 0.814520
vt 0.465731 0.494028
vt 0.559679 0.521795
vt 0.559679 0.361883
vt 0.557846 0.361342
vt 0.406047 0.416343
vt 0.556681 0.359826
vt 0.403423 0.318413
vt 0.556630 0.357915
vn 0.3090 0.0000 -0.9511
vn 0.8090 0.0000 -0.5878
vn 1.0000 0.0000 0.0000
vn 0.8090 0.0000 0.5878
vn 0.3090 0.0000 0.9511
vn -0.3090 0.0000 0.9511
vn -0.8090 0.0000 0.5878
vn -1.0000 0.0000 0.0000
vn -0.8090 0.0000 -0.5878
vn -0.3090 0.0000 -0.9511
vn 0.0000 -1.0000 0.0000
vn 0.0000 1.0000 0.0000
vn 0.0000 0.0000 1.0000
vn 0.6039 -0.6654 -0.4388
vn 0.7465 -0.6654 0.0000
vn 0.6039 -0.6654 0.4388
vn 0.2307 -0.6654 0.7099
vn -0.2307 -0.6654 0.7099
vn -0.6039 -0.6654 0.4388
vn -0.7465 -0.6654 0.0000
vn -0.6039 -0.6654 -0.4388
vn -0.2307 -0.6654 -0.7099
vn 0.2307 -0.6654 -0.7099
vn 0.2901 0.3441 -0.8930
vn -0.9555 0.2949 0.0000
vn 0.2960 0.2871 0.9110
vn 0.7604 0.3413 -0.5525
vn -0.2912 0.3345 -0.8963
vn -0.2969 0.2769 0.9139
vn 0.9450 0.3270 0.0000
vn -0.7767 0.2799 0.5643
vn -0.7676 0.3158 -0.5577
vn 0.7701 0.3063 0.5595
vn 0.5837 -0.6924 0.4241
vn 0.7303 -0.6831 0.0000
vn 0.5959 -0.6764 -0.4329
vn 0.2280 -0.6750 -0.7017
vn -0.2267 -0.6796 -0.6977
vn -0.5870 -0.6882 -0.4265
vn -0.7168 -0.6973 -0.0000
vn -0.5750 -0.7035 0.4177
vn -0.2192 -0.7047 0.6748
vn 0.2205 -0.7006 0.6787
usemtl Material.001
s off
f 1/1/1 2/2/1 4/3/1 3/4/1
f 3/5/2 4/6/2 6/7/2 5/8/2
f 5/8/3 6/7/3 8/9/3 7/10/3
f 7/10/4 8/9/4 10/11/4 9/12/4
f 9/13/5 10/14/5 12/15/5 11/16/5
f 11/16/6 12/15/6 14/17/6 13/18/6
f 13/19/7 14/20/7 16/21/7 15/22/7
f 15/22/8 16/21/8 18/23/8 17/24/8
f 18/23/8 16/21/8 28/25/8 29/26/8
f 17/24/9 18/23/9 20/27/9 19/28/9
f 19/29/10 20/30/10 2/2/10 1/1/10
f 1/31/11 3/32/11 5/33/11 7/34/11 9/35/11 11/36/11 13/37/11 15/38/11 17/39/11 19/40/11
f 25/41/4 24/42/4 34/43/4 35/44/4
f 16/21/7 14/20/7 27/45/7 28/25/7
f 14/17/6 12/15/6 26/46/6 27/47/6
f 12/15/5 10/14/5 25/48/5 26/46/5
f 10/11/4 8/9/4 24/49/4 25/50/4
f 4/3/1 2/2/1 21/51/1 22/52/1
f 8/9/3 6/7/3 23/53/3 24/49/3
f 6/7/2 4/6/2 22/54/2 23/53/2
f 2/2/10 20/30/10 30/55/10 21/51/10
f 20/27/9 18/23/9 29/26/9 30/56/9
f 32/57/12 31/58/12 40/59/12 39/60/12 38/61/12 37/62/12 36/63/12 35/64/12 34/65/12 33/66/12
f 22/67/1 21/68/1 31/69/1 32/70/1
f 29/71/8 28/72/8 38/73/8 39/74/8
f 26/75/5 25/76/5 35/77/5 36/78/5
f 23/79/2 22/80/2 32/81/2 33/82/2
f 30/83/9 29/71/9 39/74/9 40/84/9
f 27/85/6 26/75/6 36/78/6 37/86/6
f 24/42/3 23/79/3 33/82/3 34/43/3
f 21/68/10 30/87/10 40/88/10 31/69/10
f 28/72/7 27/89/7 37/90/7 38/73/7
f 24/91/12 25/92/12 45/93/12 44/94/12
f 21/95/12 22/96/12 42/97/12 41/98/12
f 28/99/12 29/100/12 49/101/12 48/102/12
f 25/92/12 26/103/12 46/104/12 45/93/12
f 22/96/12 23/105/12 43/106/12 42/97/12
f 29/100/12 30/107/12 50/108/12 49/101/12
f 26/103/12 27/109/12 47/110/12 46/104/12
f 23/105/12 24/91/12 44/94/12 43/106/12
f 30/107/12 21/95/12 41/98/12 50/108/12
f 27/109/12 28/99/12 48/102/12 47/110/12
f 45/111/13 46/112/13 57/113/13 56/114/13
f 42/115/13 43/116/13 54/117/13 53/118/13
f 49/119/13 50/120/13 61/121/13 60/122/13
f 46/112/13 47/123/13 58/124/13 57/113/13
f 43/125/13 44/126/13 55/127/13 54/128/13
f 50/120/13 41/129/13 52/130/13 61/121/13
f 47/131/13 48/132/13 59/133/13 58/134/13
f 44/135/13 45/136/13 56/137/13 55/138/13
f 41/139/13 42/115/13 53/118/13 52/140/13
f 48/141/13 49/142/13 60/143/13 59/144/13
f 58/134/14 59/133/14 38/145/14 37/146/14
f 60/147/15 39/148/15 38/149/15 59/150/15
f 60/122/16 61/121/16 51/151/16 39/152/16
f 61/153/17 52/154/17 31/155/17 51/156/17
f 53/157/18 32/158/18 31/159/18 52/160/18
f 54/161/19 33/162/19 32/163/19 53/164/19
f 55/165/20 34/166/20 33/167/20 54/168/20
f 56/169/21 35/170/21 34/171/21 55/172/21
f 57/173/22 36/174/22 35/175/22 56/176/22
f 58/177/23 37/178/23 36/179/23 57/180/23
f 31/181/12 32/182/12 63/183/12 62/184/12
f 38/185/12 39/186/12 70/187/12 69/188/12
f 35/189/12 36/190/12 67/191/12 66/192/12
f 32/182/12 33/193/12 64/194/12 63/183/12
f 51/195/12 31/181/12 62/184/12 71/196/12
f 36/190/12 37/197/12 68/198/12 67/191/12
f 33/193/12 34/199/12 65/200/12 64/194/12
f 37/197/12 38/185/12 69/188/12 68/198/12
f 39/186/12 51/195/12 71/196/12 70/187/12
f 34/199/12 35/189/12 66/192/12 65/200/12
f 32/201/24 31/202/24 72/203/24 73/204/24
f 39/205/25 38/206/25 79/207/25 80/208/25
f 36/209/26 35/210/26 76/211/26 77/212/26
f 33/213/27 32/214/27 73/215/27 74/216/27
f 31/202/28 51/217/28 81/218/28 72/203/28
f 37/219/29 36/209/29 77/212/29 78/220/29
f 34/221/30 33/213/30 74/216/30 75/222/30
f 38/206/31 37/223/31 78/224/31 79/207/31
f 51/225/32 39/205/32 80/208/32 81/226/32
f 35/227/33 34/221/33 75/222/33 76/228/33
f 70/229/34 71/230/34 81/231/34 80/232/34
f 69/233/35 70/234/35 80/208/35 79/207/35
f 68/198/36 69/188/36 79/235/36 78/236/36
f 67/237/37 68/238/37 78/220/37 77/212/37
f 66/239/38 67/237/38 77/212/38 76/211/38
f 65/240/39 66/241/39 76/242/39 75/243/39
f 64/244/40 65/245/40 75/222/40 74/216/40
f 63/246/41 64/247/41 74/248/41 73/249/41
f 62/250/42 63/246/42 73/249/42 72/251/42
f 71/252/43 62/250/43 72/251/43 81/253/43
l 40 51
